<?xml version="1.0" encoding="utf-8"?>
<!-- Generator: Adobe Illustrator 19.0.0, SVG Export Plug-In . SVG Version: 6.00 Build 0)  -->
<svg version="1.1" id="Layer_1" xmlns="http://www.w3.org/2000/svg" xmlns:xlink="http://www.w3.org/1999/xlink" x="0px" y="0px"
	 viewBox="0 0 335.1 335.1" style="enable-background:new 0 0 335.1 335.1;" xml:space="preserve">
<style type="text/css">
	.st0{fill:#414042;}
	.st1{fill:#FFFFFF;}
</style>
<circle id="XMLID_2_" class="st0" cx="167.5" cy="167.5" r="167.5"/>
<g id="XMLID_1_">
	<path id="XMLID_30_" class="st1" d="M199.8,355.6c-2.9-1.7-3.8-4.3-3.8-7.4c0-0.3,0-0.6,0-1c0-50.1,0-100.2,0-150.2
		c0-5-0.1-10.1-0.3-15.1c-0.2-4.1-1.4-8-3.4-11.6c-3.1-5.3-6.1-10.7-9-16.1c-4.5-8.3-9-16.6-13.5-24.8c-1.1-2.1-1-3.7,0.4-5.5
		c1-1.3,1.9-2.6,2.8-3.9c5.7-8,10.4-16.5,13.9-25.6c2.7-7.2,3.8-14.7,2.7-22.4C187.9,61,179,53.1,167.9,52.8
		c-6.9-0.2-13,2.2-18.8,5.7c-0.6,0.3-1.1,0.8-1.6,1.1c0.5,0.2,0.9,0,1.3-0.1c5.9-1.4,8.6,1.8,9.9,5.5c1,2.8,1.2,5.8,0.9,8.8
		c-0.4,4-1.4,7.9-2.9,11.6c-3.4,8.5-7.8,16.5-12.4,24.3c-2.9,4.9-5.9,9.7-8.9,14.6c0.3,0.7,0.6,1.4,1,2.1
		c8.2,17.1,16.5,34.3,24.7,51.4c1.1,2.3,1.7,4.6,1.7,7.2c0,54.2,0,108.3,0,162.5c0,3.4-0.6,6.3-4.6,8.1
		C172.4,355.6,186.1,355.6,199.8,355.6z M90.7,178.5c13.7,0,27.3,0,41,0c-3.4-1.9-3.9-5-3.8-8.4c0-0.6,0-1.3,0-1.9
		c0-48.5,0-96.9,0-145.4c0-1.5,0-3-0.1-4.6c-0.1-3.1-0.7-6.2-1.7-9.1c-1.4-4-4.2-6.8-8.3-7.9c-2.4-0.6-4.9-1-7.3-1.1
		c-5.9-0.2-11.8,0-17.8,0c-0.7,0-1.3,0-2,0c3.1,1.7,4.1,4.4,3.9,7.6c0,0.8,0,1.6,0,2.4c0,49.7,0,99.5,0,149.2c0,4,0,8,0,12
		C94.6,174.4,93.6,176.9,90.7,178.5z M201.6,183.7c0.6,0.1,0.8,0.1,0.9,0.1c7.1-1.7,12.9,0.2,17.6,5.8c3.4,4.1,5.4,8.9,6.9,13.9
		c3.1,10,4.1,20.3,4.6,30.7c0.4,9.8,0.2,19.5-0.9,29.2c-0.7,6.4-1.8,12.8-4.2,18.9c-1.5,3.7-3.3,7.3-6.2,10.2
		c-3.3,3.4-7.4,5.1-12.1,4.3c-2.3-0.4-4.6-1.1-7-1.7c3.4,2.6,7,4.7,11,5.9c5.8,1.8,11.6,1.9,17.6,1.1c10.2-1.4,19.1-5.6,26.4-13
		c10-10.2,14.5-22.9,16-36.9c0.7-6.9,0.5-13.9,0-20.8c-0.7-9.1-2.7-17.8-6.5-26.2c-3.2-7.2-7.6-13.5-13.7-18.6
		c-9.2-7.6-19.8-10.3-31.5-9.2C213.8,177.9,207.8,180.4,201.6,183.7z"/>
	<path id="XMLID_29_" class="st1" d="M199.8,355.6c-13.7,0-27.3,0-41.7,0c4-1.7,4.6-4.7,4.6-8.1c0-54.2,0-108.3,0-162.5
		c0-2.6-0.6-4.9-1.7-7.2c-8.3-17.1-16.5-34.3-24.7-51.4c-0.3-0.7-0.7-1.4-1-2.1c3-4.9,6-9.8,8.9-14.6c4.6-7.9,9-15.8,12.4-24.3
		c1.5-3.7,2.6-7.6,2.9-11.6c0.3-3,0.1-5.9-0.9-8.8c-1.3-3.7-4-7-9.9-5.5c-0.4,0.1-0.7,0.2-1.3,0.1c0.5-0.4,1.1-0.8,1.6-1.1
		c5.8-3.5,11.9-5.8,18.8-5.7c11,0.2,20,8.2,21.6,19.1c1.1,7.7,0,15.2-2.7,22.4c-3.5,9.2-8.3,17.6-13.9,25.6
		c-0.9,1.3-1.8,2.6-2.8,3.9c-1.4,1.8-1.5,3.5-0.4,5.5c4.6,8.2,9,16.6,13.5,24.8c3,5.4,5.9,10.8,9,16.1c2.1,3.6,3.3,7.5,3.4,11.6
		c0.2,5,0.3,10.1,0.3,15.1c0,50.1,0,100.2,0,150.2c0,0.3,0,0.6,0,1C195.9,351.3,196.8,353.9,199.8,355.6z"/>
	<path id="XMLID_28_" class="st1" d="M90.7,178.5c2.9-1.6,3.9-4.1,3.9-7.3c-0.1-4,0-8,0-12c0-49.7,0-99.5,0-149.2c0-0.8,0-1.6,0-2.4
		c0.1-3.2-0.8-5.8-3.9-7.6c0.7,0,1.3,0,2,0c5.9,0,11.8-0.1,17.8,0c2.4,0.1,4.9,0.4,7.3,1.1c4.1,1.1,6.9,3.9,8.3,7.9
		c1.1,3,1.6,6,1.7,9.1c0.1,1.5,0.1,3,0.1,4.6c0,48.5,0,96.9,0,145.4c0,0.6,0,1.3,0,1.9c-0.1,3.4,0.4,6.5,3.8,8.4
		C118,178.5,104.3,178.5,90.7,178.5z"/>
	<path id="XMLID_27_" class="st1" d="M201.6,183.7c6.2-3.3,12.2-5.8,18.8-6.4c11.7-1.1,22.4,1.6,31.5,9.2
		c6.1,5.1,10.4,11.4,13.7,18.6c3.7,8.3,5.8,17.1,6.5,26.2c0.5,7,0.7,13.9,0,20.8c-1.5,14-6.1,26.6-16,36.9
		c-7.2,7.4-16.1,11.6-26.4,13c-5.9,0.8-11.8,0.7-17.6-1.1c-4-1.2-7.5-3.3-11-5.9c2.5,0.6,4.7,1.4,7,1.7c4.8,0.7,8.8-0.9,12.1-4.3
		c2.8-2.9,4.7-6.4,6.2-10.2c2.4-6.1,3.5-12.4,4.2-18.9c1.1-9.7,1.3-19.5,0.9-29.2c-0.5-10.4-1.5-20.7-4.6-30.7
		c-1.5-5-3.5-9.8-6.9-13.9c-4.6-5.6-10.5-7.5-17.6-5.8C202.4,183.8,202.2,183.8,201.6,183.7z"/>
</g>
</svg>
